<svg width="24" height="24" viewBox="0 0 24 24" fill="none" xmlns="http://www.w3.org/2000/svg">
<path d="M4.87303 3H19.127C19.2848 2.99998 19.4404 3.0373 19.581 3.1089C19.7216 3.18051 19.8433 3.28437 19.936 3.412L23.759 8.668C23.827 8.76152 23.8605 8.8757 23.8537 8.99112C23.847 9.10653 23.8004 9.21603 23.722 9.301L12.367 21.602C12.2771 21.6992 12.1522 21.7568 12.0198 21.7621C11.8875 21.7673 11.7584 21.7198 11.661 21.63C11.654 21.624 7.86103 17.515 0.278033 9.301C0.199637 9.21603 0.153106 9.10653 0.14636 8.99112C0.139614 8.8757 0.17307 8.76152 0.241033 8.668L4.06403 3.412C4.15681 3.28437 4.27848 3.18051 4.41908 3.1089C4.55969 3.0373 4.71524 2.99998 4.87303 3ZM5.38303 5L2.58303 8.85L12 19.05L21.417 8.85L18.617 5H5.38303Z" fill="#65744D"/>
</svg>
