<svg width="24" height="24" viewBox="0 0 24 24" fill="none" xmlns="http://www.w3.org/2000/svg">
<path d="M13.5205 2H17.4795C18.6677 2 19.2618 2 19.6309 2.36913C20 2.73825 20 3.33234 20 4.52054V16.939C20 19.8848 20 21.3578 19.1634 21.6564C18.3268 21.955 17.3941 20.815 15.5287 18.5351L11.5697 13.6964C11.2877 13.3517 11.1467 13.1793 11.0734 12.9738C11 12.7683 11 12.5456 11 12.1003V4.52054C11 3.33234 11 2.73825 11.3691 2.36913C11.7382 2 12.3323 2 13.5205 2Z" fill="#515D3D"/>
<path d="M10.4795 22H6.52054C5.33234 22 4.73825 22 4.36912 21.6309C4 21.2618 4 20.6677 4 19.4795V7.06105C4 4.11518 4 2.64224 4.83658 2.34361C5.67317 2.04498 6.60588 3.18497 8.47132 5.46495L12.4303 10.3036C12.7123 10.6483 12.8533 10.8207 12.9266 11.0262C13 11.2317 13 11.4544 13 11.8997V19.4795C13 20.6677 13 21.2618 12.6309 21.6309C12.2618 22 11.6677 22 10.4795 22Z" fill="#849170"/>
</svg>
