<svg width="24" height="24" viewBox="0 0 24 24" fill="none" xmlns="http://www.w3.org/2000/svg">
<path d="M4 1.73389C4.17597 1.73402 4.34879 1.78059 4.501 1.86889L20.505 11.1349C20.6565 11.2228 20.7823 11.349 20.8698 11.5008C20.9572 11.6526 21.0032 11.8247 21.0032 11.9999C21.0032 12.1751 20.9572 12.3472 20.8698 12.499C20.7823 12.6508 20.6565 12.777 20.505 12.8649L4.501 22.1309C4.34903 22.2189 4.17657 22.2653 4.00098 22.2654C3.82538 22.2656 3.65284 22.2195 3.50069 22.1319C3.34855 22.0442 3.22218 21.918 3.13429 21.766C3.04639 21.614 3.00008 21.4415 3 21.2659V2.73389C3 2.46867 3.10536 2.21432 3.29289 2.02678C3.48043 1.83924 3.73478 1.73389 4 1.73389ZM12.292 13.4139L7.794 17.9119L13.493 14.6129L12.293 13.4129L12.292 13.4139ZM5 6.11789V17.8779L10.88 11.9979L5 6.11789ZM15.284 10.4199L13.706 11.9999L15.284 13.5769L18.008 11.9999L15.283 10.4209L15.284 10.4199ZM7.794 6.08389L12.294 10.5839L13.493 9.38389L7.794 6.08389Z" fill="#65744D"/>
</svg>
