<svg width="24" height="24" viewBox="0 0 24 24" fill="none" xmlns="http://www.w3.org/2000/svg">
<path d="M3.16104 4.46916C4.32111 3.30889 5.87704 2.63025 7.51664 2.56942C9.15624 2.50858 10.7582 3.07005 12.001 4.14116C13.2428 3.07183 14.8426 2.511 16.4803 2.57093C18.1179 2.63086 19.6724 3.30714 20.8327 4.46437C21.993 5.62161 22.6733 7.17439 22.7375 8.81185C22.8018 10.4493 22.2451 12.0506 21.179 13.2952L13.414 21.0852C13.0573 21.442 12.5788 21.6509 12.0746 21.6698C11.5703 21.6887 11.0775 21.5163 10.695 21.1872L10.585 21.0862L2.82104 13.2952C1.75553 12.0517 1.19862 10.4519 1.26166 8.81554C1.32469 7.17922 2.00303 5.62698 3.16104 4.46916ZM4.57504 5.88316C3.75728 6.70115 3.2859 7.80261 3.25871 8.95893C3.23152 10.1153 3.65063 11.2377 4.42904 12.0932L4.57504 12.2472L12 19.6722L17.303 14.3682L13.768 10.8332L12.708 11.8932C12.4295 12.1718 12.0988 12.3929 11.7348 12.5438C11.3709 12.6946 10.9807 12.7723 10.5868 12.7724C9.79103 12.7726 9.02783 12.4567 8.46504 11.8942C7.90225 11.3316 7.58598 10.5686 7.58579 9.77287C7.5856 8.97715 7.90152 8.21395 8.46404 7.65116L10.566 5.54816C9.72951 4.88054 8.68245 4.53285 7.61273 4.56749C6.543 4.60213 5.52063 5.01682 4.72904 5.73716L4.57504 5.88316ZM13.061 8.71116C13.2486 8.52369 13.5029 8.41838 13.768 8.41838C14.0332 8.41838 14.2875 8.52369 14.475 8.71116L18.717 12.9532L19.425 12.2472C20.2565 11.4163 20.7299 10.2931 20.7439 9.11773C20.7579 7.94237 20.3115 6.80818 19.5001 5.95772C18.6887 5.10726 17.5767 4.60803 16.402 4.56682C15.2273 4.5256 14.0831 4.94566 13.214 5.73716L13.061 5.88316L9.87904 9.06516C9.70571 9.23838 9.60202 9.46921 9.58764 9.71383C9.57326 9.95845 9.6492 10.1998 9.80104 10.3922L9.87904 10.4792C10.0523 10.6525 10.2831 10.7562 10.5277 10.7706C10.7723 10.7849 11.0137 10.709 11.206 10.5572L11.293 10.4792L13.061 8.71116Z" fill="#65744D"/>
</svg>
