<svg width="24" height="24" viewBox="0 0 24 24" fill="none" xmlns="http://www.w3.org/2000/svg">
<path d="M15.7291 8.2081C15.2561 8.1711 14.7481 8.2841 13.9701 8.5811C14.0361 8.5561 13.2281 8.8711 13.0021 8.9511C12.5001 9.1261 12.0871 9.2221 11.6241 9.2221C11.1661 9.2221 10.7441 9.1301 10.2581 8.9671C10.1031 8.9141 9.94706 8.8571 9.75306 8.7811C9.67106 8.7491 9.37106 8.6291 9.30506 8.6041C8.65706 8.3501 8.29206 8.2541 7.98906 8.2621C6.83706 8.2771 5.74606 8.9421 5.11306 10.0441C3.82106 12.2881 4.53606 16.3431 6.42506 19.0751C7.43106 20.5191 7.98106 21.0351 8.20306 21.0281C8.42506 21.0181 8.58806 20.9711 8.98606 20.8031L9.15306 20.7321C10.1581 20.3031 10.8631 20.1141 11.9241 20.1141C12.9451 20.1141 13.6271 20.3001 14.5921 20.7161L14.7601 20.7881C15.1581 20.9581 15.3021 20.9961 15.5521 20.9901C15.9101 20.9851 16.3511 20.5731 17.3301 19.1361C17.5981 18.7451 17.8351 18.3331 18.0401 17.9161C17.9053 17.8051 17.7746 17.6894 17.6481 17.5691C16.3591 16.3411 15.5621 14.6851 15.5401 12.6391C15.5185 11.1253 16.0161 9.64971 16.9501 8.4581C16.5581 8.31339 16.1464 8.22909 15.7291 8.2081ZM15.8841 6.2141C16.5921 6.2621 18.6201 6.4781 19.9401 8.4101C19.8321 8.4701 17.5161 9.8141 17.5401 12.6221C17.5761 15.9821 20.4801 17.0981 20.5161 17.1101C20.4921 17.1941 20.0481 18.7061 18.9801 20.2661C18.0561 21.6221 17.0961 22.9661 15.5841 22.9901C14.0961 23.0261 13.6161 22.1141 11.9241 22.1141C10.2201 22.1141 9.69206 22.9661 8.28806 23.0261C6.82406 23.0741 5.72006 21.5621 4.78406 20.2181C2.87606 17.4581 1.42406 12.4421 3.38006 9.0461C4.35206 7.3541 6.08006 6.2861 7.96406 6.2621C9.39206 6.2261 10.7481 7.2221 11.6241 7.2221C12.4881 7.2221 14.0361 6.0701 15.8841 6.2141ZM14.7441 4.3901C13.9641 5.3261 12.6921 6.0581 11.4561 5.9621C11.2881 4.6901 11.9121 3.3581 12.6321 2.5301C13.4361 1.5941 14.7801 0.898098 15.8961 0.850098C16.0401 2.1461 15.5241 3.4541 14.7441 4.3901Z" fill="#65744D"/>
</svg>
