<svg width="24" height="24" viewBox="0 0 24 24" fill="none" xmlns="http://www.w3.org/2000/svg">
<path d="M4 12.9386H9.54932V11.0614H4V2.46923C4.00001 2.38768 4.02097 2.30754 4.0608 2.23671C4.10062 2.16587 4.15795 2.1068 4.22713 2.0653C4.29631 2.0238 4.37495 2.00132 4.4553 2.00006C4.53565 1.9988 4.61493 2.01881 4.68534 2.05811L21.7606 11.5889C21.8331 11.6294 21.8936 11.6889 21.9357 11.7612C21.9778 11.8335 22 11.916 22 12C22 12.084 21.9778 12.1665 21.9357 12.2388C21.8936 12.3111 21.8331 12.3706 21.7606 12.4111L4.68534 21.9419C4.61493 21.9812 4.53565 22.0012 4.4553 21.9999C4.37495 21.9987 4.29631 21.9762 4.22713 21.9347C4.15795 21.8932 4.10062 21.8341 4.0608 21.7633C4.02097 21.6925 4.00001 21.6123 4 21.5308V12.9386Z" fill="#FBFFF5"/>
</svg>
