<svg width="496" height="609" viewBox="0 0 496 609" fill="none" xmlns="http://www.w3.org/2000/svg">
<circle cx="26" cy="24" r="4" fill="#A9C96B"/>
<circle cx="66" cy="24" r="4" fill="#A9C96B"/>
<circle cx="106" cy="24" r="4" fill="#A9C96B"/>
<circle cx="146" cy="24" r="4" fill="#A9C96B"/>
<circle cx="186" cy="24" r="4" fill="#A9C96B"/>
<circle cx="226" cy="24" r="4" fill="#A9C96B"/>
<circle cx="266" cy="24" r="4" fill="#A9C96B"/>
<circle cx="306" cy="24" r="4" fill="#A9C96B"/>
<circle cx="346" cy="24" r="4" fill="#A9C96B"/>
<circle cx="386" cy="24" r="4" fill="#A9C96B"/>
<circle cx="426" cy="24" r="4" fill="#A9C96B"/>
<circle cx="466" cy="24" r="4" fill="#A9C96B"/>
<circle cx="26" cy="64" r="4" fill="#A9C96B"/>
<circle cx="66" cy="64" r="4" fill="#A9C96B"/>
<circle cx="106" cy="64" r="4" fill="#A9C96B"/>
<circle cx="146" cy="64" r="4" fill="#A9C96B"/>
<circle cx="186" cy="64" r="4" fill="#A9C96B"/>
<circle cx="226" cy="64" r="4" fill="#A9C96B"/>
<circle cx="266" cy="64" r="4" fill="#A9C96B"/>
<circle cx="306" cy="64" r="4" fill="#A9C96B"/>
<circle cx="346" cy="64" r="4" fill="#A9C96B"/>
<circle cx="386" cy="64" r="4" fill="#A9C96B"/>
<circle cx="426" cy="64" r="4" fill="#A9C96B"/>
<circle cx="466" cy="64" r="4" fill="#A9C96B"/>
<circle cx="26" cy="104" r="4" fill="#A9C96B"/>
<circle cx="66" cy="104" r="4" fill="#A9C96B"/>
<circle cx="106" cy="104" r="4" fill="#A9C96B"/>
<circle cx="146" cy="104" r="4" fill="#A9C96B"/>
<circle cx="186" cy="104" r="4" fill="#A9C96B"/>
<circle cx="226" cy="104" r="4" fill="#A9C96B"/>
<circle cx="266" cy="104" r="4" fill="#A9C96B"/>
<circle cx="306" cy="104" r="4" fill="#A9C96B"/>
<circle cx="346" cy="104" r="4" fill="#A9C96B"/>
<circle cx="386" cy="104" r="4" fill="#A9C96B"/>
<circle cx="426" cy="104" r="4" fill="#A9C96B"/>
<circle cx="466" cy="104" r="4" fill="#A9C96B"/>
<circle cx="26" cy="144" r="4" fill="#A9C96B"/>
<circle cx="66" cy="144" r="4" fill="#A9C96B"/>
<circle cx="106" cy="144" r="4" fill="#A9C96B"/>
<circle cx="146" cy="144" r="4" fill="#A9C96B"/>
<circle cx="186" cy="144" r="4" fill="#A9C96B"/>
<circle cx="226" cy="144" r="4" fill="#A9C96B"/>
<circle cx="266" cy="144" r="4" fill="#A9C96B"/>
<circle cx="306" cy="144" r="4" fill="#A9C96B"/>
<circle cx="346" cy="144" r="4" fill="#A9C96B"/>
<circle cx="386" cy="144" r="4" fill="#A9C96B"/>
<circle cx="426" cy="144" r="4" fill="#A9C96B"/>
<circle cx="466" cy="144" r="4" fill="#A9C96B"/>
<circle cx="26" cy="184" r="4" fill="#A9C96B"/>
<circle cx="66" cy="184" r="4" fill="#A9C96B"/>
<circle cx="106" cy="184" r="4" fill="#A9C96B"/>
<circle cx="146" cy="184" r="4" fill="#A9C96B"/>
<circle cx="186" cy="184" r="4" fill="#A9C96B"/>
<circle cx="226" cy="184" r="4" fill="#A9C96B"/>
<circle cx="266" cy="184" r="4" fill="#A9C96B"/>
<circle cx="306" cy="184" r="4" fill="#A9C96B"/>
<circle cx="346" cy="184" r="4" fill="#A9C96B"/>
<circle cx="386" cy="184" r="4" fill="#A9C96B"/>
<circle cx="426" cy="184" r="4" fill="#A9C96B"/>
<circle cx="466" cy="184" r="4" fill="#A9C96B"/>
<circle cx="26" cy="344" r="4" fill="#A9C96B"/>
<circle cx="66" cy="344" r="4" fill="#A9C96B"/>
<circle cx="106" cy="344" r="4" fill="#A9C96B"/>
<circle cx="146" cy="344" r="4" fill="#A9C96B"/>
<circle cx="186" cy="344" r="4" fill="#A9C96B"/>
<circle cx="226" cy="344" r="4" fill="#A9C96B"/>
<circle cx="266" cy="344" r="4" fill="#A9C96B"/>
<circle cx="306" cy="344" r="4" fill="#A9C96B"/>
<circle cx="346" cy="344" r="4" fill="#A9C96B"/>
<circle cx="386" cy="344" r="4" fill="#A9C96B"/>
<circle cx="426" cy="344" r="4" fill="#A9C96B"/>
<circle cx="466" cy="344" r="4" fill="#A9C96B"/>
<circle cx="26" cy="384" r="4" fill="#A9C96B"/>
<circle cx="66" cy="384" r="4" fill="#A9C96B"/>
<circle cx="106" cy="384" r="4" fill="#A9C96B"/>
<circle cx="146" cy="384" r="4" fill="#A9C96B"/>
<circle cx="186" cy="384" r="4" fill="#A9C96B"/>
<circle cx="226" cy="384" r="4" fill="#A9C96B"/>
<circle cx="266" cy="384" r="4" fill="#A9C96B"/>
<circle cx="306" cy="384" r="4" fill="#A9C96B"/>
<circle cx="346" cy="384" r="4" fill="#A9C96B"/>
<circle cx="386" cy="384" r="4" fill="#A9C96B"/>
<circle cx="426" cy="384" r="4" fill="#A9C96B"/>
<circle cx="466" cy="384" r="4" fill="#A9C96B"/>
<circle cx="26" cy="424" r="4" fill="#A9C96B"/>
<circle cx="66" cy="424" r="4" fill="#A9C96B"/>
<circle cx="106" cy="424" r="4" fill="#A9C96B"/>
<circle cx="146" cy="424" r="4" fill="#A9C96B"/>
<circle cx="186" cy="424" r="4" fill="#A9C96B"/>
<circle cx="226" cy="424" r="4" fill="#A9C96B"/>
<circle cx="266" cy="424" r="4" fill="#A9C96B"/>
<circle cx="306" cy="424" r="4" fill="#A9C96B"/>
<circle cx="346" cy="424" r="4" fill="#A9C96B"/>
<circle cx="386" cy="424" r="4" fill="#A9C96B"/>
<circle cx="426" cy="424" r="4" fill="#A9C96B"/>
<circle cx="466" cy="424" r="4" fill="#A9C96B"/>
<circle cx="26" cy="464" r="4" fill="#A9C96B"/>
<circle cx="66" cy="464" r="4" fill="#A9C96B"/>
<circle cx="106" cy="464" r="4" fill="#A9C96B"/>
<circle cx="146" cy="464" r="4" fill="#A9C96B"/>
<circle cx="186" cy="464" r="4" fill="#A9C96B"/>
<circle cx="226" cy="464" r="4" fill="#A9C96B"/>
<circle cx="266" cy="464" r="4" fill="#A9C96B"/>
<circle cx="306" cy="464" r="4" fill="#A9C96B"/>
<circle cx="346" cy="464" r="4" fill="#A9C96B"/>
<circle cx="386" cy="464" r="4" fill="#A9C96B"/>
<circle cx="426" cy="464" r="4" fill="#A9C96B"/>
<circle cx="466" cy="464" r="4" fill="#A9C96B"/>
<circle cx="26" cy="504" r="4" fill="#A9C96B"/>
<circle cx="66" cy="504" r="4" fill="#A9C96B"/>
<circle cx="106" cy="504" r="4" fill="#A9C96B"/>
<circle cx="146" cy="504" r="4" fill="#A9C96B"/>
<circle cx="186" cy="504" r="4" fill="#A9C96B"/>
<circle cx="226" cy="504" r="4" fill="#A9C96B"/>
<circle cx="266" cy="504" r="4" fill="#A9C96B"/>
<circle cx="306" cy="504" r="4" fill="#A9C96B"/>
<circle cx="346" cy="504" r="4" fill="#A9C96B"/>
<circle cx="386" cy="504" r="4" fill="#A9C96B"/>
<circle cx="426" cy="504" r="4" fill="#A9C96B"/>
<circle cx="466" cy="504" r="4" fill="#A9C96B"/>
<circle cx="26" cy="544" r="4" fill="#A9C96B"/>
<circle cx="66" cy="544" r="4" fill="#A9C96B"/>
<circle cx="106" cy="544" r="4" fill="#A9C96B"/>
<circle cx="146" cy="544" r="4" fill="#A9C96B"/>
<circle cx="186" cy="544" r="4" fill="#A9C96B"/>
<circle cx="226" cy="544" r="4" fill="#A9C96B"/>
<circle cx="266" cy="544" r="4" fill="#A9C96B"/>
<circle cx="306" cy="544" r="4" fill="#A9C96B"/>
<circle cx="346" cy="544" r="4" fill="#A9C96B"/>
<circle cx="386" cy="544" r="4" fill="#A9C96B"/>
<circle cx="426" cy="544" r="4" fill="#A9C96B"/>
<circle cx="466" cy="544" r="4" fill="#A9C96B"/>
<circle cx="26" cy="584" r="4" fill="#A9C96B"/>
<circle cx="66" cy="584" r="4" fill="#A9C96B"/>
<circle cx="106" cy="584" r="4" fill="#A9C96B"/>
<circle cx="146" cy="584" r="4" fill="#A9C96B"/>
<circle cx="186" cy="584" r="4" fill="#A9C96B"/>
<circle cx="226" cy="584" r="4" fill="#A9C96B"/>
<circle cx="266" cy="584" r="4" fill="#A9C96B"/>
<circle cx="306" cy="584" r="4" fill="#A9C96B"/>
<circle cx="346" cy="584" r="4" fill="#A9C96B"/>
<circle cx="386" cy="584" r="4" fill="#A9C96B"/>
<circle cx="426" cy="584" r="4" fill="#A9C96B"/>
<circle cx="466" cy="584" r="4" fill="#A9C96B"/>
<circle cx="26" cy="224" r="4" fill="#A9C96B"/>
<circle cx="66" cy="224" r="4" fill="#A9C96B"/>
<circle cx="106" cy="224" r="4" fill="#A9C96B"/>
<circle cx="146" cy="224" r="4" fill="#A9C96B"/>
<circle cx="186" cy="224" r="4" fill="#A9C96B"/>
<circle cx="226" cy="224" r="4" fill="#A9C96B"/>
<circle cx="266" cy="224" r="4" fill="#A9C96B"/>
<circle cx="306" cy="224" r="4" fill="#A9C96B"/>
<circle cx="346" cy="224" r="4" fill="#A9C96B"/>
<circle cx="386" cy="224" r="4" fill="#A9C96B"/>
<circle cx="426" cy="224" r="4" fill="#A9C96B"/>
<circle cx="466" cy="224" r="4" fill="#A9C96B"/>
<circle cx="26" cy="264" r="4" fill="#A9C96B"/>
<circle cx="66" cy="264" r="4" fill="#A9C96B"/>
<circle cx="106" cy="264" r="4" fill="#A9C96B"/>
<circle cx="146" cy="264" r="4" fill="#A9C96B"/>
<circle cx="186" cy="264" r="4" fill="#A9C96B"/>
<circle cx="226" cy="264" r="4" fill="#A9C96B"/>
<circle cx="266" cy="264" r="4" fill="#A9C96B"/>
<circle cx="306" cy="264" r="4" fill="#A9C96B"/>
<circle cx="346" cy="264" r="4" fill="#A9C96B"/>
<circle cx="386" cy="264" r="4" fill="#A9C96B"/>
<circle cx="426" cy="264" r="4" fill="#A9C96B"/>
<circle cx="466" cy="264" r="4" fill="#A9C96B"/>
<circle cx="26" cy="304" r="4" fill="#A9C96B"/>
<circle cx="66" cy="304" r="4" fill="#A9C96B"/>
<circle cx="106" cy="304" r="4" fill="#A9C96B"/>
<circle cx="146" cy="304" r="4" fill="#A9C96B"/>
<circle cx="186" cy="304" r="4" fill="#A9C96B"/>
<circle cx="226" cy="304" r="4" fill="#A9C96B"/>
<circle cx="266" cy="304" r="4" fill="#A9C96B"/>
<circle cx="306" cy="304" r="4" fill="#A9C96B"/>
<circle cx="346" cy="304" r="4" fill="#A9C96B"/>
<circle cx="386" cy="304" r="4" fill="#A9C96B"/>
<circle cx="426" cy="304" r="4" fill="#A9C96B"/>
<circle cx="466" cy="304" r="4" fill="#A9C96B"/>
</svg>
